<?xml version="1.0" encoding="utf-8"?>
<!-- Generator: Adobe Illustrator 16.0.0, SVG Export Plug-In . SVG Version: 6.00 Build 0)  -->
<!DOCTYPE svg PUBLIC "-//W3C//DTD SVG 1.1//EN" "http://www.w3.org/Graphics/SVG/1.1/DTD/svg11.dtd">
<svg version="1.1" id="Layer_1" xmlns="http://www.w3.org/2000/svg" xmlns:xlink="http://www.w3.org/1999/xlink" x="0px" y="0px"
	 width="143.639px" height="101.52px" viewBox="0 0 143.639 101.52" enable-background="new 0 0 143.639 101.52"
	 xml:space="preserve">
<g>
	<path fill="#F9C81D" d="M51.104,59.8c-0.002,0.006-0.002,0.012-0.006,0.016c-0.002,0-0.002,0-0.004,0
		c0.002-0.006,0.004-0.012,0.008-0.016H51.104z"/>
	<path fill="#F9C81D" d="M50.914,76.042c-0.006,0-0.015,0.002-0.021,0.002c0.006-0.004,0.01-0.01,0.019-0.013
		C50.912,76.034,50.914,76.038,50.914,76.042z"/>
	<path fill="#F4F3F0" d="M51.104,59.8c-0.002,0.006-0.002,0.012-0.006,0.016c-0.002,0-0.002,0-0.004,0L51.104,59.8z"/>
	<path fill="#F4F3F0" d="M51.482,59.821c-0.188,0.724-0.854,1.039-1.3,1.547c-0.128,0.145-0.331,0.216-0.499,0.055
		c-0.168-0.16-0.098-0.354,0.038-0.496c0.321-0.334,0.596-0.726,1.029-0.938c0.128-0.03,0.294,0.01,0.348-0.17
		C51.227,59.817,51.354,59.819,51.482,59.821z"/>
	<path fill="#F9C81D" d="M51.104,59.8c-0.002,0.006-0.002,0.012-0.006,0.016c-0.053,0.18-0.22,0.14-0.348,0.17
		c0.08-0.134,0.161-0.266,0.352-0.186H51.104z"/>
	<path fill="#F9C81D" d="M50.74,76.179c0.051-0.046,0.104-0.09,0.153-0.136c0.006-0.004,0.01-0.01,0.019-0.013
		c0,0.003,0.002,0.007,0.002,0.011C50.938,76.183,50.826,76.166,50.74,76.179z"/>
	<path fill="#F0C01A" d="M63.119,66.943c-0.007,0.058-0.008,0.112-0.001,0.177l-0.002,0.001
		C63.111,67.056,63.112,66.999,63.119,66.943z"/>
	<path fill="#FAC718" d="M63.119,66.943c-0.007,0.058-0.008,0.112-0.001,0.177l-0.002,0.001
		C63.111,67.056,63.112,66.999,63.119,66.943z"/>
	<g>
		<path fill="#F7C61B" d="M27.942,28.856c1.085-0.125,2.17-0.25,3.255-0.375c0.396,0.007,0.786,0.016,1.181,0.021
			c0.829,0.046,1.659,0.093,2.485,0.139c0.374,0.083,0.748,0.165,1.122,0.248c0.96,0.431,1.92,0.861,2.883,1.292
			c0.252,0.213,0.504,0.427,0.756,0.644c0.6,0.775,1.189,1.56,1.588,2.469c0.138,0.435,0.273,0.871,0.413,1.306
			c0.244,1.237,0.893,2.234,1.818,3.065c0.277,0.375,0.606,0.685,1.063,0.838c0.708,0.576,1.505,0.975,2.392,1.188
			c0.165,0.125,0.331,0.25,0.496,0.375c-1.015,1.785-1.998,3.586-2.615,5.561c-0.086,0.271-0.194,0.497-0.521,0.514
			c-0.227-0.103-0.447-0.206-0.67-0.309c-0.819-0.541-1.642-1.083-2.458-1.624c-0.175-0.156-0.353-0.313-0.525-0.471
			c-0.659-0.818-1.314-1.642-1.976-2.463c-0.119-0.36-0.213-0.736-0.566-0.964c-0.381-1.108-0.845-2.185-1.445-3.197
			c-0.253-0.542-0.509-1.079-0.969-1.486c-0.442-0.896-1.08-1.633-1.861-2.247c-0.113-0.121-0.229-0.242-0.345-0.363
			c-0.787-0.854-1.684-1.56-2.748-2.043c-0.193-0.254-0.452-0.403-0.771-0.446c-0.806-0.563-1.703-0.902-2.662-1.097
			C27.215,28.911,27.711,29.043,27.942,28.856z"/>
		<path fill="#F7C61B" d="M26.006,46.84c-0.854-0.354-1.734-0.549-2.659-0.534c-0.494-0.196-1.01-0.165-1.524-0.153
			c-0.391-0.021-0.778-0.042-1.315-0.068c0.86-0.745,1.865-0.993,2.706-1.52c0.416-0.186,0.832-0.372,1.247-0.558
			c1.22-0.323,2.438-0.647,3.661-0.971c0.372-0.033,0.74-0.065,1.112-0.101c0.944,0.1,1.892,0.193,2.833,0.29
			c0.364,0.148,0.729,0.296,1.096,0.444c0.674,0.53,1.349,1.06,2.021,1.589c0.254,0.301,0.508,0.604,0.762,0.905
			c0.467,0.966,1.2,1.651,2.158,2.116c0.289,0.278,0.628,0.457,1.033,0.5c0.843,0.425,1.737,0.61,2.68,0.568
			c0.418,0.161,0.848,0.175,1.279,0.081c0.347,0.461,0.083,0.945,0.025,1.409c-0.19,1.538-0.369,3.074-0.182,4.626
			c-0.077,0.271-0.026,0.636-0.472,0.634c-0.911-0.143-1.822-0.285-2.732-0.428c-0.309-0.106-0.614-0.214-0.925-0.319
			c-0.735-0.391-1.476-0.776-2.214-1.169c-0.293-0.203-0.586-0.402-0.879-0.604c-0.725-0.703-1.449-1.405-2.173-2.108
			c-0.208-0.375-0.491-0.676-0.88-0.867c-0.535-0.674-1.212-1.171-1.964-1.576c-0.313-0.191-0.625-0.389-0.938-0.583
			c-0.724-0.566-1.542-0.938-2.431-1.163C26.934,46.997,26.481,46.886,26.006,46.84z"/>
		<path fill="#F7C61B" d="M21.705,63.917c-0.294,0.099-0.588,0.193-1.041,0.348c0.734-1.294,1.862-2.074,2.682-3.111
			c0.219-0.063,0.398-0.171,0.453-0.411l-0.004,0.009c0.595-0.464,1.188-0.927,1.786-1.393c1.188-0.674,2.417-1.265,3.728-1.67
			c0.42-0.063,0.842-0.127,1.263-0.188c0.912,0.121,1.823,0.242,2.734,0.36c0.35,0.163,0.7,0.326,1.05,0.488
			c0.679,0.479,1.287,1.063,2.115,1.293c0.375,0.313,0.82,0.419,1.294,0.438c1.049,0.353,2.104,0.364,3.158,0.027
			c0.429-0.114,0.854-0.231,1.286-0.353c0.931-0.399,1.394-0.096,1.453,0.919c0.022,0.438,0.154,0.872,0.237,1.309
			c0.151,0.521,0.305,1.04,0.454,1.563c0.055,0.217,0.091,0.438,0.158,0.647c0.522,1.681,0.524,1.681-1.214,2.131
			c-0.042,0.011-0.078,0.043-0.118,0.063c-0.437,0.013-0.874,0.024-1.311,0.036c-1.055-0.094-2.104-0.188-3.156-0.281
			c-0.31-0.075-0.616-0.146-0.923-0.225c-0.771-0.283-1.538-0.567-2.31-0.854c-0.459-0.229-0.918-0.46-1.377-0.688
			c-0.705-0.479-1.492-0.741-2.318-0.901c-0.389-0.104-0.772-0.212-1.159-0.314c-0.984-0.285-1.98-0.452-3.008-0.312
			c-0.349-0.191-0.688-0.063-1.03,0.018c-1.244-0.108-2.415,0.208-3.572,0.604C22.517,63.439,22.072,63.563,21.705,63.917z"/>
		<path fill="#F7C61B" d="M39.318,15.552c0.713,0.122,1.428,0.244,2.141,0.366c0.29,0.182,0.602,0.279,0.946,0.241
			c0.905,0.347,1.813,0.69,2.717,1.04c0.337,0.174,0.675,0.348,1.012,0.521c0.722,0.531,1.444,1.063,2.167,1.593
			c0.284,0.331,0.569,0.662,0.853,0.993c0.523,0.991,1.118,1.953,1.257,3.103c0.048,0.55,0.094,1.1,0.141,1.647l0.003-0.009
			c-0.157,0.188-0.14,0.396-0.061,0.61c-0.208,1.547,0.174,2.936,1.117,4.173c0.188,0.485,0.484,0.887,0.915,1.185
			c1.287,1.611,1.278,1.604-0.221,3.075c-0.694,0.682-1.325,1.427-2.023,2.104c-0.396,0.387-0.628,1.009-1.319,1.009
			c-0.104-0.271-0.24-0.509-0.526-0.619c-0.604-0.936-1.208-1.867-1.813-2.8c-0.146-0.339-0.294-0.676-0.441-1.013
			c-0.423-1.479-0.905-2.942-0.947-4.503c0.03-0.65,0.045-1.305-0.217-1.925c-0.021-1.485-0.592-2.819-1.138-4.16
			c-0.092-0.374-0.171-0.755-0.521-0.996c-0.401-1.063-0.987-2.009-1.816-2.796c-0.092-0.302-0.291-0.51-0.56-0.662
			c-0.422-0.8-1.28-1.188-1.793-1.901C39.231,15.733,39.274,15.643,39.318,15.552z"/>
		<path fill="#F7C61B" d="M116.786,46.997c1.189,0.076,2.358-0.065,3.509-0.394c0.396,0.057,0.751-0.096,1.099-0.261
			c0.611-0.204,1.226-0.408,2.159-0.72c-1.36,1.9-2.959,3.04-4.36,4.371c-0.479,0.293-0.963,0.586-1.441,0.878
			c-1.188,0.648-2.485,0.993-3.772,1.369c-0.479-0.006-0.96-0.012-1.438-0.016c-0.7-0.169-1.4-0.337-2.104-0.505
			c-0.341-0.171-0.681-0.341-1.021-0.512c-0.803-0.717-1.685-1.271-2.773-1.416c-0.291-0.181-0.6-0.267-0.938-0.172
			c-1.143-0.256-2.242-0.116-3.32,0.301c-0.515,0.152-1.029,0.306-1.543,0.458c-0.274-1.229-0.55-2.458-0.824-3.688
			c0.042-0.394-0.111-0.729-0.312-1.05c-0.265-0.908-0.715-1.894,0.847-2.047c0.46-0.055,0.919-0.109,1.379-0.165
			c0.856,0.021,1.713,0.042,2.569,0.063c0.396,0.068,0.795,0.143,1.188,0.214c0.853,0.272,1.699,0.549,2.549,0.824
			c0.352,0.163,0.696,0.324,1.045,0.487c0.681,0.5,1.447,0.789,2.263,0.982c0.396,0.273,0.847,0.38,1.316,0.408
			c0.967,0.357,1.957,0.553,2.99,0.506C116.161,46.948,116.473,46.973,116.786,46.997z"/>
		<path fill="#F7C61B" d="M94.757,23.647c1.312-0.351,2.651-0.629,3.78-1.456c0.438-0.155,0.913-0.249,1.199-0.672
			c2.849-1.585,4.645-4.103,6.126-6.896c0.031,0.634,0.063,1.266,0.098,1.896c-0.252,1.497-0.432,3.013-0.771,4.486
			c-0.619,2.671-1.961,4.89-4.354,6.369c-0.427,0.15-0.854,0.307-1.279,0.46c-1.212,0.365-2.551,0.119-3.704,0.768
			c-0.559,0.134-1.043,0.404-1.456,0.805c-0.938,0.506-1.668,1.267-2.162,2.168c-0.563,1.028-1.112,1.351-2.011,0.417
			c-0.201-0.275-0.449-0.486-0.789-0.569c-0.706-0.669-1.552-1.114-2.428-1.51c-0.251-0.251-0.541-0.429-0.899-0.476
			c-0.162-1.236,1.107-1.587,1.531-2.461c0.593-0.438,1.185-0.881,1.777-1.319c1.187-0.695,2.431-1.269,3.729-1.718
			C93.684,23.845,94.221,23.746,94.757,23.647z"/>
		<path fill="#F7C61B" d="M117.028,29.084c-0.321,2.091-1.553,3.756-2.629,5.482c-0.307,0.489-0.688,0.933-1.035,1.395
			c-0.152,0.072-0.31,0.146-0.464,0.22l0.002-0.018c-0.003,0-0.003,0-0.005,0.001c-0.229,0.06-0.421,0.163-0.443,0.436
			c-0.215,0.235-0.423,0.476-0.635,0.708c-1.063,0.589-2.163,1.105-3.354,1.392c-0.525,0.004-1.049,0.005-1.573,0.009
			c-0.99-0.196-1.95-0.576-2.985-0.524c-0.394-0.113-0.784-0.133-1.182-0.01c-1.569,0.259-3.04,0.735-4.206,1.889
			c-0.44,0.045-0.642,0.626-1.15,0.524c-0.366-1.002-0.962-1.868-1.629-2.69c-0.188-0.244-0.381-0.484-0.568-0.729
			c-0.244-0.317-0.445-0.682-0.739-0.939c-0.869-0.771-0.46-1.244,0.334-1.65c0.711-0.366,1.426-0.726,2.139-1.088
			c0.432-0.13,0.857-0.261,1.284-0.389c1.194-0.12,2.39-0.237,3.582-0.354c0.281,0.022,0.563,0.051,0.844,0.071
			c0.852,0.207,1.705,0.348,2.583,0.249c0.511,0.147,1.019,0.146,1.524,0.005c1.208,0.083,2.369-0.128,3.5-0.554
			c0.498,0.079,0.929-0.068,1.305-0.395c1.259-0.291,2.308-1.047,3.457-1.568c0.29-0.271,0.577-0.545,0.868-0.818
			c0.217-0.056,0.392-0.159,0.448-0.395C116.541,29.253,116.784,29.169,117.028,29.084z"/>
		<polygon fill="#F7C61B" points="112.902,36.165 112.9,36.182 112.898,36.177 112.897,36.166 		"/>
		<path fill="#F7C61B" d="M117.222,62.859c-0.056,0.126-0.11,0.251-0.166,0.377c-0.554,0.114-1.013,0.414-1.46,0.738
			c-1.338,0.532-2.675,1.065-4.013,1.601c-0.422,0.121-0.848,0.244-1.27,0.368c-0.672-0.613-1.345-1.229-2.017-1.847
			c-0.129-0.261-0.223-0.548-0.54-0.651c-0.564-0.938-1.313-1.676-2.336-2.105c-0.321-0.252-0.674-0.43-1.09-0.449
			c-1.044-0.438-2.13-0.523-3.243-0.389c-0.126-0.031-0.252-0.063-0.378-0.098c0.12-1.405,0.296-2.813,0.351-4.224
			c0.09-2.337,0.061-2.339,2.396-2.087c0.43,0.125,0.855,0.251,1.289,0.377c0.702,0.344,1.402,0.688,2.105,1.032
			c0.296,0.201,0.594,0.399,0.893,0.604c0.751,0.682,1.502,1.357,2.253,2.037c0.232,0.215,0.472,0.432,0.707,0.646
			c0.582,0.753,1.339,1.306,2.106,1.842c0.229,0.308,0.556,0.472,0.902,0.597c0.829,0.673,1.771,1.109,2.812,1.347
			C116.761,62.667,116.992,62.763,117.222,62.859z"/>
		<polygon fill="#F7C61B" points="84.861,16.182 84.866,16.178 84.866,16.18 		"/>
		<path fill="#F7C61B" d="M89.556,6.142c0.001,0.011-0.001,0.023,0,0.034c-0.002,0-0.003-0.002-0.006-0.001L89.556,6.142z"/>
		<path fill="#F7C61B" d="M76.126,8.866c0.591,1.146,0.75,2.407,0.961,3.657c-0.167,0.992-0.335,1.98-0.502,2.976
			c-0.227,0.424-0.442,0.85-0.663,1.271c-0.535,0.597-1.076,1.184-1.604,1.78c-1.296,1.473-1.93,3.167-1.718,5.141
			c-0.01,0.271-0.094,0.558-0.021,0.795c0.331,1.096-0.013,1.645-1.188,1.583c-0.288-0.18-0.573-0.097-0.854,0.015
			c-1.043-0.201-2.038,0.27-3.069,0.224c-0.154,0.085-0.305,0.17-0.458,0.255c-0.285,0.05-0.571,0.1-0.856,0.146
			c-0.01-0.102-0.021-0.197-0.031-0.296c0.154-0.197,0.125-0.403,0.021-0.61l-0.021-0.004c-0.22-3.296,0.859-6.17,2.854-8.744
			c2.05-2.646,3.465-5.548,3.553-8.971c0.139-0.188,0.127-0.39,0.041-0.591c0.121-0.664,0.143-1.324-0.069-1.979
			c0.183-0.783-0.32-1.506-0.235-2.314c0.489,0.008,0.577,0.482,0.884,0.661c0.192,0.243,0.388,0.483,0.578,0.729
			c0.549,0.844,1.1,1.688,1.646,2.53c0.085,0.248,0.171,0.495,0.255,0.737c0.166,0.241,0.328,0.482,0.494,0.726
			C76.121,8.678,76.124,8.771,76.126,8.866z"/>
		<path fill="#F7C61B" d="M96.609,53.843c-0.1-0.206-0.138-0.413,0.021-0.61c0.037-0.2,0.073-0.405,0.111-0.609
			c-0.09-0.346-0.176-0.688-0.262-1.031c-0.008-0.302-0.012-0.608-0.019-0.912c-0.228-1.229-0.503-2.451-0.998-3.607
			c-0.018-0.184-0.031-0.363-0.047-0.549c-0.134-0.237-0.271-0.479-0.402-0.719c-0.063-0.265-0.133-0.528-0.198-0.791
			c-0.387-0.812-0.771-1.626-1.156-2.438c-0.063-0.011-0.124-0.009-0.188-0.001c-0.164-0.332-0.253-0.714-0.589-0.938
			c-0.063-0.159-0.123-0.313-0.187-0.473c-0.58-0.749-1.166-1.495-1.749-2.242c-0.021-0.09-0.036-0.178-0.061-0.271
			c-0.2-0.138-0.396-0.271-0.595-0.407c-0.029-0.08-0.053-0.16-0.066-0.241c-0.743-0.574-1.257-1.407-2.108-1.854
			c-0.026-0.086-0.052-0.174-0.075-0.26c-0.226-0.122-0.444-0.241-0.666-0.361c-0.034-0.079-0.063-0.161-0.083-0.245
			c-0.75-0.519-1.502-1.03-2.25-1.549c-0.082,0.016-0.162,0.021-0.246,0.026c-0.17-0.103-0.345-0.208-0.52-0.313
			c-0.014-0.061-0.021-0.114-0.026-0.177c-0.872-0.42-1.743-0.842-2.614-1.262c-0.085,0.021-0.168,0.033-0.254,0.039
			c-0.225-0.09-0.45-0.18-0.673-0.268c-0.046-0.069-0.094-0.139-0.147-0.204c-0.813-0.237-1.635-0.476-2.453-0.71
			c-0.052,0.032-0.104,0.064-0.163,0.091c-0.296-0.188-0.613-0.278-0.97-0.229c-0.044-0.063-0.098-0.129-0.148-0.188
			c-0.945-0.079-1.893-0.157-2.841-0.234c-0.051-0.062-0.104-0.124-0.155-0.186c-0.224,0.054-0.442,0.104-0.661,0.157
			c-0.049-0.063-0.104-0.121-0.159-0.182c-1.028,0.043-2.055,0.084-3.08,0.125c-0.458,0.051-0.914,0.103-1.368,0.152
			c-1.139,0.288-2.271,0.579-3.41,0.869c-0.164,0.086-0.324,0.172-0.485,0.257c-0.27,0.057-0.532,0.114-0.802,0.172
			c-0.161,0.086-0.322,0.17-0.487,0.257c-1.362,0.229-2.476,1.047-3.703,1.587c-0.304,0.251-0.606,0.506-0.909,0.759
			c-0.175,0.049-0.352,0.099-0.525,0.146c-0.36,0.331-0.726,0.66-1.087,0.991c-2.079,1.343-3.546,3.29-5.086,5.165
			c-1.351,2.13-2.482,4.361-3.326,6.747c-0.553,2.241-1.18,4.475-1.009,6.826c0.002-0.001,0.004-0.004,0.005-0.008
			c0.001,0.003,0.001,0.003,0.003,0.006c0.079,0.203,0.107,0.402-0.045,0.595c-0.045,0.206-0.091,0.409-0.139,0.614
			c0.072,0.25,0.146,0.497,0.214,0.743c0.003-0.001,0.006-0.001,0.011-0.002l0.015-0.006v0.003c0.104,0.204,0.144,0.405-0.014,0.604
			c-0.035,0.204-0.071,0.409-0.109,0.611c0.428,1.303,0.188,2.736,0.812,3.997c0.03,0.184,0.061,0.361,0.087,0.542
			c0.176,0.418,0.351,0.834,0.522,1.252l-0.093,0.021c0.304,0.964,0.757,1.853,1.289,2.706c0.075,0.257,0.146,0.51,0.227,0.767
			c0.17,0.229,0.343,0.457,0.515,0.688c0.005,0.095,0.012,0.189,0.016,0.288c0.867,0.511,1.746-0.053,2.619,0.039
			c0.245-0.049,0.49-0.094,0.735-0.143c0.221,0.014,0.438,0.025,0.654,0.036c0.13,0.001,0.26,0.001,0.389,0.003
			c-0.007-0.054,0.014-0.095,0.059-0.121l0.072,0.104c0.942-0.192,1.896-0.263,2.853-0.16c0.166-0.053,0.332-0.108,0.496-0.159
			c0.153-0.021,0.305-0.036,0.455-0.056c0.054,0.06,0.105,0.115,0.163,0.174c1.021-0.208,2.055-0.134,3.086-0.104
			c0.167-0.021,0.328-0.05,0.494-0.07c-0.003-0.063-0.003-0.119,0.005-0.179c-0.005,0.059-0.005,0.113-0.002,0.178
			c0.229,0.046,0.455,0.09,0.683,0.136c0.166-0.052,0.333-0.104,0.499-0.151c0.861,0.116,1.727,0.124,2.589,0.021
			c0.029,0.043,0.063,0.087,0.091,0.134l1.089,0.063c0.083-0.043,0.166-0.088,0.247-0.132c0.971,0.081,1.939,0.162,2.911,0.241
			c0.169-0.028,0.341-0.057,0.51-0.085c0.237,0.058,0.479,0.115,0.717,0.172c0.066-0.034,0.135-0.073,0.199-0.111
			c0.778,0.066,1.563,0.139,2.346,0.202c0.183-0.015,0.366-0.031,0.552-0.051c0.457,0.017,0.913,0.034,1.375,0.049
			c0.03,0.043,0.063,0.087,0.093,0.13c0.774,0.036,1.551,0.073,2.326,0.106c0.166-0.029,0.335-0.061,0.503-0.093l0.002,0.002
			c0.229,0.061,0.456,0.122,0.687,0.183c0.075-0.032,0.151-0.065,0.229-0.105c0.978,0.067,1.952,0.14,2.927,0.214
			c0.079-0.041,0.155-0.08,0.232-0.123c0.455,0.007,0.914,0.018,1.368,0.021c0.027,0.044,0.062,0.093,0.097,0.137
			c0.855,0.008,1.711,0.018,2.568,0.025c0.171-0.052,0.342-0.103,0.51-0.151c0.121,0.056,0.24,0.104,0.358,0.153
			c0.165-0.051,0.333-0.103,0.498-0.15c0.97,0.046,1.936,0.095,2.897,0.14c0.563-0.111,0.735-0.595,0.983-1.011
			c1.446-2.435,2.396-5.058,3.069-7.79c0.203-1.811,0.629-3.604,0.358-5.441L96.609,53.843z M59.446,42.298
			c0.071,0.21,0.127,0.421-0.033,0.617c0.005-0.001,0.012,0,0.017-0.002l-0.021,0.01c0-0.002,0-0.002-0.002-0.005
			C59.3,42.706,59.264,42.496,59.446,42.298z"/>
		<path fill="#F7C61B" d="M89.869,6.276c0.435,1.372,0.864,2.744,1.299,4.119c-0.089,0.568,0.091,1.091,0.263,1.617
			c0.002,0.446-0.015,0.896,0.002,1.336c0.156,3.874-1.516,6.639-5.017,8.298c-2.042,0.854-2.995,2.563-3.607,4.56
			c-0.182,0.581-0.039,1.271-0.563,1.744c-0.786-0.338-1.575-0.655-2.442-0.725c-0.048-0.063-0.095-0.13-0.145-0.191
			c-0.323-0.074-0.646-0.152-0.972-0.229c-0.064,0.028-0.137,0.063-0.204,0.097c-0.735-0.348-1.623-0.218-2.319-0.693
			c0.365-2.257,1.601-4.064,3.009-5.78c1.242-1.018,2.416-2.128,3.91-2.794c0.283-0.285,0.563-0.57,0.85-0.855
			c0.222-0.063,0.402-0.168,0.455-0.41l-0.001,0.008c0.161-0.065,0.318-0.128,0.479-0.193c-0.006,0-0.005,0.003-0.008,0.004
			c0.003,0,0.003,0,0.008-0.001c0.213-0.07,0.39-0.181,0.429-0.43c0.281-0.344,0.563-0.689,0.841-1.037
			c1.982-2.51,3.346-5.266,3.421-8.537C89.659,6.21,89.765,6.24,89.869,6.276z"/>
		<path fill="#F7C61B" d="M62.463,16.539c-0.11,0.421-0.217,0.843-0.327,1.264c-0.202,0.153-0.202,0.357-0.148,0.579
			c0.002,0.4-0.171,0.734-0.396,1.046c-0.015,0.17-0.03,0.337-0.048,0.505c-0.07,0.234-0.143,0.467-0.21,0.702
			c-0.168,0.167-0.182,0.369-0.129,0.586c-0.084,0.318-0.168,0.639-0.252,0.958c-0.021,0.151-0.042,0.304-0.063,0.453l0.053,0.047
			l-0.021,0.068c0.282,1.135,0.278,2.35,0.919,3.389c0.212,0.405,0.423,0.81,0.635,1.214c0.021,0.309-0.235,0.396-0.426,0.532
			c-0.46,0.079-0.917,0.169-1.26,0.528c-1.241,0.319-2.28,1.098-3.463,1.552c-0.233,0.331-0.55,0.479-0.953,0.435
			c-0.093-0.212-0.184-0.423-0.274-0.634c-0.032-0.18-0.063-0.354-0.099-0.536c-0.611-1.146-0.644-2.438-0.929-3.672
			c0.042-0.393,0.084-0.788,0.129-1.18c-0.049-0.167-0.099-0.333-0.146-0.499c0.16-0.188,0.118-0.397,0.066-0.611
			c0.33-0.83,0.264-1.772,0.764-2.556c0.463-2.049,0.983-4.091,0.715-6.229c-0.008-0.726-0.004-1.456-0.322-2.135
			c-0.104-1.387-0.54-2.662-1.279-3.837c-0.104-0.37-0.173-0.756-0.529-0.99c0.208-0.271-1.093-0.896,0.215-0.908
			c0.332,0.193,0.663,0.388,0.995,0.578c0.732,0.51,1.464,1.017,2.194,1.522c0.254,0.2,0.505,0.397,0.759,0.597
			c0.669,0.716,1.337,1.435,2.005,2.148c0.088,0.161,0.179,0.323,0.267,0.482c0.145,0.152,0.28,0.305,0.419,0.455
			c0.096,0.245,0.188,0.49,0.276,0.733C62.203,14.188,62.341,15.362,62.463,16.539z"/>
		<polygon fill="#F7C61B" points="84.866,16.178 84.866,16.18 84.861,16.182 		"/>
		<polygon fill="#F7C61B" points="112.902,36.165 112.9,36.182 112.898,36.177 112.897,36.166 		"/>
		<path fill="#F7C61B" d="M116.299,29.331c-0.002,0.003-0.001,0.006-0.003,0.009c-0.062,0.233-0.231,0.339-0.448,0.395
			C115.904,29.494,116.079,29.387,116.299,29.331z"/>
		<path fill="#F7C61B" d="M34.542,37.635c-0.129,0.213-0.333,0.258-0.563,0.249C34.109,37.668,34.31,37.617,34.542,37.635z"/>
		<path fill="#F7C61B" d="M61.331,20.635c0.064,0.219,0.064,0.424-0.129,0.586C61.152,21.004,61.162,20.802,61.331,20.635z"/>
		<path fill="#F7C61B" d="M84.387,16.363c-0.053,0.245-0.233,0.354-0.455,0.413C83.984,16.528,84.161,16.418,84.387,16.363z"/>
		<path fill="#F7C61B" d="M38.964,15.841c0.052-0.138,0.104-0.276,0.158-0.413c0.063,0.042,0.13,0.084,0.193,0.125
			c-0.043,0.089-0.086,0.18-0.129,0.271C39.115,15.839,39.04,15.845,38.964,15.841z"/>
		<path fill="#F7C61B" d="M50.55,25.047c0.09,0.214,0.104,0.421-0.063,0.61C50.41,25.444,50.393,25.237,50.55,25.047z"/>
		<path fill="#F7C61B" d="M112.902,36.165c-0.002,0.003-0.003,0.009-0.004,0.013c-0.052,0.239-0.238,0.342-0.444,0.425
			c0.022-0.271,0.216-0.376,0.443-0.436C112.899,36.165,112.899,36.165,112.902,36.165z"/>
		<path fill="#F7C61B" d="M85.294,15.75c-0.039,0.249-0.216,0.356-0.432,0.43c-0.002,0.001-0.002,0.001-0.005,0.001
			c0.003,0,0.002-0.003,0.005-0.004C85.008,16.036,85.152,15.894,85.294,15.75z"/>
		<path fill="#F7C61B" d="M59.427,42.913l-0.021,0.01c0-0.002,0-0.002-0.001-0.005c0.006-0.001,0.006-0.001,0.008-0.003
			C59.416,42.915,59.422,42.916,59.427,42.913z"/>
		<path fill="#F7C61B" d="M62.136,17.803c-0.049,0.193-0.099,0.386-0.148,0.579C61.934,18.161,61.934,17.956,62.136,17.803z"/>
		<path fill="#F7C61B" d="M72.57,7.492c0.086,0.205,0.098,0.4-0.041,0.591c-0.001,0.006-0.006,0.01-0.01,0.014
			C72.447,7.888,72.406,7.683,72.57,7.492z"/>
		<path fill="#F7C61B" d="M22.83,65.625c-0.089,0.012-0.181,0.021-0.271,0.032c0.043-0.063,0.078-0.126,0.104-0.193
			C22.73,65.507,22.784,65.561,22.83,65.625z"/>
		<path fill="#F7C61B" d="M66.121,26.412c-0.094-0.206-0.143-0.411,0.021-0.61C66.246,26.009,66.278,26.215,66.121,26.412z"/>
		<path fill="#F7C61B" d="M55.121,23.266c0.051,0.213,0.093,0.424-0.066,0.611c-0.001,0.004-0.006,0.008-0.01,0.012
			C54.941,23.664,54.913,23.452,55.121,23.266z"/>
		<polygon fill="#F7C61B" points="47.737,54.151 47.729,54.153 47.734,54.145 		"/>
		<polygon fill="#F7C61B" points="47.791,56.095 47.791,56.098 47.788,56.099 47.778,56.101 		"/>
		<polygon fill="#F7C61B" points="47.791,56.095 47.791,56.098 47.788,56.099 47.778,56.101 		"/>
		<polygon fill="#F7C61B" points="47.737,54.151 47.729,54.153 47.734,54.145 		"/>
		<path fill="#F7C61B" d="M47.692,54.743c-0.088-0.204-0.1-0.402,0.037-0.593c0.002-0.001,0.004-0.004,0.005-0.008
			c0.001,0.003,0.001,0.003,0.002,0.006C47.816,54.354,47.845,54.553,47.692,54.743z"/>
		<path fill="#F7C61B" d="M47.779,56.703c-0.091-0.203-0.152-0.403,0.012-0.604c0.003-0.001,0.003-0.001,0.003-0.001
			C47.896,56.302,47.935,56.503,47.779,56.703z"/>
		<path fill="#F7C61B" d="M96.609,53.843c-0.1-0.206-0.138-0.413,0.021-0.61C96.721,53.438,96.77,53.645,96.609,53.843z"/>
		<path fill="#F7C61B" d="M107.554,66.268c0.181,0.269,0.361,0.531,0.542,0.798c0.13,0.604,0.886,1.26,0.521,1.697
			c-0.459,0.558-1.319,0.021-2.011,0.014c-0.443-0.096-0.893-0.189-1.338-0.285c-0.83-0.217-1.659-0.431-2.485-0.645
			c0.631-1.433,1.899-2.353,2.845-3.536c0.023-0.032,0.233,0.081,0.357,0.126C106.51,65.047,107.033,65.658,107.554,66.268z"/>
		<path fill="#F7C61B" d="M59.427,42.913l-0.021,0.01c0-0.002,0-0.002-0.001-0.005c0.006-0.001,0.006-0.001,0.008-0.003
			C59.416,42.915,59.422,42.916,59.427,42.913z"/>
		<path fill="#F7C61B" d="M59.41,42.916c0,0,0,0.007-0.007,0.008c0-0.002,0-0.002-0.001-0.005c-0.104-0.213-0.141-0.423,0.041-0.62
			C59.517,42.508,59.573,42.72,59.41,42.916z"/>
	</g>
	<path fill="#F4F3F0" d="M55.57,67.493l-0.13,0.021c-0.006-0.054,0.015-0.094,0.06-0.121L55.57,67.493z"/>
	<g enable-background="new    ">
		<path fill="#FFFFFF" d="M33.423,78.827c0-0.143-0.021-0.271-0.063-0.383c-0.042-0.112-0.12-0.215-0.232-0.31
			s-0.267-0.185-0.463-0.271c-0.197-0.087-0.45-0.177-0.759-0.271c-0.338-0.101-0.651-0.216-0.937-0.346
			c-0.286-0.131-0.533-0.282-0.739-0.454c-0.207-0.173-0.368-0.371-0.485-0.596s-0.176-0.481-0.176-0.771
			c0-0.286,0.061-0.55,0.183-0.791c0.122-0.24,0.293-0.448,0.515-0.624s0.486-0.313,0.795-0.41s0.65-0.146,1.024-0.146
			c0.4,0,0.76,0.058,1.079,0.174c0.319,0.115,0.588,0.272,0.808,0.471c0.219,0.198,0.388,0.429,0.505,0.69s0.176,0.541,0.176,0.837
			h-1.23c0-0.173-0.027-0.331-0.08-0.476c-0.054-0.146-0.136-0.271-0.247-0.376c-0.111-0.105-0.25-0.188-0.419-0.246
			c-0.169-0.059-0.37-0.088-0.601-0.088c-0.218,0-0.406,0.024-0.566,0.073c-0.159,0.048-0.292,0.116-0.397,0.204
			c-0.106,0.088-0.184,0.192-0.234,0.313s-0.076,0.251-0.076,0.391c0,0.264,0.125,0.483,0.374,0.658
			c0.249,0.176,0.628,0.339,1.139,0.488c0.4,0.117,0.747,0.247,1.04,0.391c0.292,0.143,0.536,0.305,0.729,0.485
			c0.194,0.181,0.338,0.384,0.432,0.609c0.094,0.227,0.142,0.481,0.142,0.764c0,0.3-0.06,0.568-0.178,0.808s-0.288,0.442-0.507,0.61
			c-0.22,0.167-0.486,0.296-0.798,0.386c-0.313,0.089-0.661,0.134-1.044,0.134c-0.341,0-0.678-0.047-1.01-0.139
			c-0.332-0.093-0.629-0.233-0.893-0.42c-0.263-0.188-0.476-0.421-0.637-0.7c-0.161-0.28-0.242-0.608-0.242-0.985h1.235
			c0,0.224,0.04,0.417,0.119,0.578c0.08,0.161,0.189,0.292,0.327,0.395s0.302,0.178,0.49,0.225c0.189,0.048,0.392,0.071,0.61,0.071
			c0.43,0,0.752-0.087,0.969-0.262C33.315,79.344,33.423,79.114,33.423,78.827z"/>
		<path fill="#FFFFFF" d="M41.237,73.553v4.753c0,0.406-0.069,0.763-0.207,1.068c-0.139,0.306-0.328,0.562-0.569,0.766
			c-0.241,0.205-0.522,0.359-0.844,0.462c-0.322,0.102-0.667,0.153-1.035,0.153c-0.38,0-0.732-0.052-1.056-0.153
			c-0.324-0.103-0.604-0.257-0.842-0.462c-0.237-0.204-0.423-0.46-0.556-0.766s-0.2-0.662-0.2-1.068v-4.753h1.229v4.753
			c0,0.254,0.034,0.473,0.1,0.656c0.067,0.184,0.162,0.336,0.286,0.456c0.124,0.12,0.273,0.209,0.449,0.266
			c0.176,0.058,0.373,0.086,0.59,0.086s0.416-0.028,0.593-0.086c0.177-0.057,0.327-0.146,0.449-0.266
			c0.122-0.12,0.216-0.272,0.283-0.456c0.067-0.184,0.1-0.402,0.1-0.656v-4.753H41.237z"/>
		<path fill="#FFFFFF" d="M48.49,80.657h-1.235l-3.167-5.04v5.04h-1.234v-7.104h1.234l3.176,5.061v-5.061h1.225V80.657z"/>
		<path fill="#FFFFFF" d="M50.249,80.657v-7.104h2.435c0.384,0,0.729,0.038,1.035,0.115c0.306,0.076,0.564,0.192,0.776,0.349
			s0.373,0.355,0.485,0.598s0.168,0.529,0.168,0.861c0,0.325-0.088,0.618-0.264,0.878c-0.176,0.261-0.433,0.462-0.771,0.605
			c0.205,0.055,0.383,0.136,0.534,0.241c0.151,0.105,0.277,0.23,0.376,0.373c0.099,0.144,0.173,0.301,0.222,0.474
			c0.048,0.173,0.073,0.352,0.073,0.537c0,0.341-0.056,0.642-0.168,0.899c-0.112,0.259-0.275,0.476-0.488,0.649
			c-0.213,0.174-0.472,0.305-0.775,0.393c-0.304,0.088-0.648,0.132-1.032,0.132H50.249z M51.483,76.544h1.21
			c0.384,0,0.684-0.087,0.9-0.261s0.325-0.421,0.325-0.739c0-0.352-0.1-0.605-0.3-0.762s-0.512-0.233-0.935-0.233h-1.2V76.544z
			 M51.483,77.451v2.221h1.371c0.202,0,0.38-0.026,0.534-0.078c0.155-0.052,0.284-0.126,0.388-0.223
			c0.104-0.096,0.182-0.21,0.234-0.344c0.052-0.133,0.078-0.281,0.078-0.443c0-0.352-0.093-0.628-0.278-0.83
			c-0.186-0.201-0.486-0.303-0.903-0.303H51.483z"/>
		<path fill="#FFFFFF" d="M61.005,77.486h-2.918v2.187h3.411v0.985h-4.645v-7.104h4.611v0.996h-3.376v1.961h2.918V77.486z"/>
		<path fill="#FFFFFF" d="M66.779,79.003h-2.752l-0.576,1.654h-1.283l2.684-7.104h1.107l2.688,7.104H67.36L66.779,79.003z
			 M64.374,78.008h2.059l-1.03-2.947L64.374,78.008z"/>
		<path fill="#FFFFFF" d="M71.353,73.553l2.049,5.445l2.044-5.445h1.596v7.104h-1.229v-2.342l0.122-3.133l-2.098,5.475h-0.884
			l-2.093-5.47l0.122,3.128v2.342h-1.229v-7.104H71.353z"/>
		<path fill="#FFFFFF" d="M87.23,80.657H86V77.5h-3.177v3.157h-1.234v-7.104h1.234v2.957H86v-2.957h1.229V80.657z"/>
		<path fill="#FFFFFF" d="M94.658,77.29c0,0.54-0.071,1.024-0.212,1.452c-0.143,0.428-0.342,0.79-0.598,1.088
			c-0.258,0.298-0.566,0.526-0.928,0.686s-0.762,0.239-1.2,0.239c-0.437,0-0.835-0.08-1.195-0.239
			c-0.361-0.159-0.673-0.388-0.935-0.686s-0.465-0.66-0.609-1.088c-0.146-0.428-0.218-0.912-0.218-1.452v-0.36
			c0-0.54,0.072-1.024,0.218-1.454c0.145-0.43,0.346-0.794,0.604-1.093c0.259-0.3,0.568-0.529,0.93-0.688
			c0.36-0.159,0.759-0.239,1.195-0.239c0.438,0,0.84,0.08,1.202,0.239c0.363,0.159,0.674,0.389,0.933,0.688
			c0.259,0.299,0.458,0.663,0.601,1.093c0.141,0.43,0.212,0.914,0.212,1.454V77.29z M93.423,76.92c0-0.397-0.037-0.747-0.113-1.052
			c-0.077-0.304-0.188-0.559-0.335-0.764s-0.326-0.36-0.539-0.466c-0.214-0.105-0.454-0.158-0.725-0.158
			c-0.264,0-0.501,0.053-0.712,0.158c-0.212,0.105-0.392,0.261-0.539,0.466c-0.148,0.205-0.263,0.46-0.342,0.764
			c-0.08,0.305-0.12,0.654-0.12,1.052v0.37c0,0.397,0.04,0.749,0.12,1.055c0.079,0.306,0.193,0.562,0.344,0.769
			c0.149,0.206,0.331,0.362,0.544,0.468c0.213,0.106,0.451,0.159,0.715,0.159c0.546,0,0.967-0.208,1.261-0.625
			c0.295-0.416,0.441-1.024,0.441-1.825V76.92z"/>
		<path fill="#FFFFFF" d="M100.906,74.549h-2.215v6.108h-1.225v-6.108h-2.195v-0.996h5.635V74.549z"/>
		<path fill="#FFFFFF" d="M106.29,77.486h-2.918v2.187h3.41v0.985h-4.645v-7.104h4.61v0.996h-3.376v1.961h2.918V77.486z"/>
		<path fill="#FFFFFF" d="M109.322,79.672h3.226v0.985h-4.46v-7.104h1.234V79.672z"/>
	</g>
	<g enable-background="new    ">
	</g>
	<g enable-background="new    ">
	</g>
	<g enable-background="new    ">
	</g>
	<g enable-background="new    ">
	</g>
	<g enable-background="new    ">
		<path fill="#FFFFFF" d="M41.363,92.263h-1.125v2.239h-1.01V88.69h2.044c0.333,0,0.629,0.038,0.89,0.113
			c0.261,0.076,0.481,0.188,0.661,0.336c0.18,0.147,0.316,0.33,0.409,0.549c0.093,0.218,0.14,0.471,0.14,0.759
			c0,0.389-0.094,0.714-0.282,0.976c-0.188,0.263-0.449,0.464-0.784,0.604l1.305,2.424v0.052h-1.082L41.363,92.263z M40.238,91.452
			h1.038c0.181,0,0.339-0.024,0.475-0.072s0.249-0.114,0.339-0.199s0.158-0.187,0.204-0.304s0.068-0.246,0.068-0.387
			c0-0.149-0.021-0.284-0.064-0.405s-0.107-0.226-0.195-0.312c-0.088-0.087-0.201-0.153-0.337-0.2
			c-0.137-0.046-0.301-0.069-0.493-0.069h-1.034V91.452z"/>
		<path fill="#FFFFFF" d="M50.139,91.907h-2.387v1.788h2.79v0.807h-3.8V88.69h3.772v0.814h-2.762v1.604h2.387V91.907z"/>
		<path fill="#FFFFFF" d="M56.814,93.005c0-0.117-0.018-0.222-0.052-0.313c-0.035-0.092-0.098-0.176-0.19-0.253
			s-0.218-0.151-0.379-0.222c-0.161-0.071-0.368-0.145-0.621-0.222c-0.277-0.083-0.532-0.177-0.767-0.283
			c-0.234-0.106-0.436-0.23-0.604-0.372c-0.169-0.141-0.302-0.303-0.397-0.486s-0.144-0.395-0.144-0.631
			c0-0.234,0.05-0.45,0.15-0.647c0.1-0.196,0.24-0.367,0.421-0.511s0.398-0.255,0.651-0.335s0.532-0.12,0.838-0.12
			c0.327,0,0.621,0.048,0.882,0.142c0.261,0.095,0.481,0.224,0.661,0.386s0.317,0.351,0.413,0.564
			c0.096,0.215,0.144,0.442,0.144,0.685h-1.006c0-0.141-0.022-0.271-0.066-0.389s-0.111-0.221-0.202-0.308s-0.205-0.153-0.343-0.201
			c-0.138-0.049-0.302-0.072-0.491-0.072c-0.178,0-0.333,0.02-0.463,0.06s-0.239,0.096-0.325,0.168
			c-0.087,0.072-0.15,0.157-0.192,0.256c-0.041,0.098-0.062,0.204-0.062,0.319c0,0.215,0.102,0.395,0.306,0.539
			c0.204,0.144,0.514,0.276,0.932,0.398c0.327,0.096,0.611,0.202,0.85,0.319c0.24,0.117,0.438,0.25,0.597,0.397
			c0.158,0.147,0.276,0.314,0.353,0.499c0.077,0.186,0.116,0.394,0.116,0.625c0,0.245-0.048,0.465-0.146,0.66
			c-0.097,0.196-0.235,0.362-0.415,0.499c-0.18,0.138-0.397,0.242-0.653,0.315s-0.541,0.11-0.854,0.11
			c-0.279,0-0.555-0.038-0.826-0.114c-0.271-0.075-0.515-0.19-0.73-0.343c-0.216-0.153-0.389-0.345-0.521-0.573
			s-0.198-0.498-0.198-0.807h1.01c0,0.184,0.032,0.342,0.098,0.474c0.065,0.132,0.154,0.239,0.268,0.323
			c0.113,0.084,0.247,0.145,0.401,0.184c0.154,0.038,0.321,0.058,0.499,0.058c0.352,0,0.616-0.071,0.792-0.214
			C56.726,93.428,56.814,93.24,56.814,93.005z"/>
		<path fill="#FFFFFF" d="M65.083,89.504H63.27v4.998h-1.002v-4.998h-1.796V88.69h4.611V89.504z"/>
		<path fill="#FFFFFF" d="M72.269,88.69v3.889c0,0.332-0.057,0.624-0.169,0.874c-0.113,0.25-0.268,0.459-0.465,0.627
			c-0.197,0.167-0.427,0.293-0.69,0.377s-0.545,0.126-0.846,0.126c-0.312,0-0.6-0.042-0.864-0.126
			c-0.265-0.084-0.495-0.21-0.689-0.377c-0.194-0.168-0.346-0.377-0.455-0.627c-0.109-0.25-0.164-0.542-0.164-0.874V88.69h1.006
			v3.889c0,0.207,0.027,0.387,0.082,0.536c0.055,0.15,0.132,0.275,0.233,0.374s0.224,0.171,0.367,0.217
			c0.144,0.047,0.305,0.07,0.483,0.07c0.178,0,0.34-0.023,0.485-0.07c0.145-0.046,0.268-0.118,0.367-0.217
			c0.1-0.099,0.177-0.224,0.231-0.374c0.055-0.149,0.082-0.329,0.082-0.536V88.69H72.269z"/>
		<path fill="#FFFFFF" d="M77.896,92.263H76.77v2.239h-1.011V88.69h2.045c0.332,0,0.629,0.038,0.89,0.113
			c0.261,0.076,0.481,0.188,0.661,0.336s0.316,0.33,0.408,0.549c0.094,0.218,0.141,0.471,0.141,0.759
			c0,0.389-0.094,0.714-0.281,0.976c-0.188,0.263-0.449,0.464-0.785,0.604l1.306,2.424v0.052h-1.081L77.896,92.263z M76.77,91.452
			h1.038c0.181,0,0.339-0.024,0.475-0.072s0.249-0.114,0.34-0.199c0.09-0.085,0.158-0.187,0.203-0.304s0.068-0.246,0.068-0.387
			c0-0.149-0.021-0.284-0.064-0.405s-0.107-0.226-0.195-0.312c-0.088-0.087-0.201-0.153-0.338-0.2
			c-0.137-0.046-0.301-0.069-0.492-0.069H76.77V91.452z"/>
		<path fill="#FFFFFF" d="M86.527,93.149h-2.251l-0.472,1.354h-1.049l2.195-5.813h0.906l2.199,5.813h-1.054L86.527,93.149z
			 M84.56,92.334h1.684l-0.842-2.411L84.56,92.334z"/>
		<path fill="#FFFFFF" d="M95.738,94.502h-1.01l-2.591-4.124v4.124h-1.011V88.69h1.011l2.599,4.14v-4.14h1.002V94.502z"/>
		<path fill="#FFFFFF" d="M103.304,89.504h-1.813v4.998h-1.002v-4.998h-1.797V88.69h4.611V89.504z"/>
	</g>
	
		<line fill="none" stroke="#FFFFFF" stroke-width="0.4542" stroke-miterlimit="10" x1="32.768" y1="84.917" x2="109.292" y2="84.917"/>
</g>
</svg>
